# xmcd
#
# Track frame offsets: 
#        150
#        11723
#        21788
#        36822
#        48365
#        65242
#        73263
#        85959
#        98508
#        110421
#
# Disc length: 1619 seconds
#
# Revision: 0
# Processed by: cddbd v1.4PL0 Copyright (c) Steve Scherf et al.
# Submitted via: ExactAudioCopy v0.95a3
#
DISCID=8306510a
DTITLE=Willie Nelson - Box Of Willie Nelson - Disc Åöù
DYEAR=2003
DGENRE=Country
TTITLE0=I'll Stay Around
TTITLE1=Pride Wins Again
TTITLE2=Face Of A Fighter
TTITLE3=Is There Something On Your Mind
TTITLE4=I Let My Mind Wander
TTITLE5=Things To Remember
TTITLE6=Any Old Arms Won't Do
TTITLE7=She's Not For You
TTITLE8=Night Life (live)
TTITLE9=I'm Gonna Lose A Lot Of Teardrops
EXTD=
EXTT0=
EXTT1=
EXTT2=
EXTT3=
EXTT4=
EXTT5=
EXTT6=
EXTT7=
EXTT8=
EXTT9=
PLAYORDER=
